#!OML:ASF X:\für Bonn\!DataBase\2005_08_11_Bastian_Final\c3d\Bastian.ASF
:FULLY-SPECIFIED
:DEGREES
32
root -0.279085 16.6495 5.70841 172.786 -12.0816 -179.406
lowerback 14.5992 -2.78204 -1.37367
upperback 5.30566 -4.53818 -0.876486
thorax -2.53118 -2.52743 0.613018
lowerneck -9.63862 -6.8822 -3.18802
upperneck -3.51623 -9.55952 10.8021
head 1.30374 -4.87339 3.64378
rclavicle 8.94531e-016 2.5842e-014
rhumerus 70.005 21.49 2.34577
rradius 40.2077
rwrist -56.0029
rhand -45.5742 -7.13805
rfingers 7.12502
rthumb -18.3361 -36.2938
lclavicle 8.94531e-016 2.5842e-014
lhumerus 68.4644 -22.1305 -0.787499
lradius 32.7735
lwrist 2.13671
lhand -44.0608 12.0697
lfingers 7.12502
lthumb -16.8797 41.3562
rfemur -9.53961 -11.1671 21.7229
rtibia 52.4402
rfoot -29.2745 -8.78044
rtoes -0.554578
lfemur -10.4209 2.13121 -18.8412
ltibia 48.7242
lfoot -20.4687 -13.3175
ltoes -4.00681
33
root -0.275531 16.5525 5.71764 172.546 -12.0571 -179.246
lowerback 14.9732 -2.77496 -1.17323
upperback 5.34196 -4.52239 -0.866662
thorax -2.70694 -2.52322 0.532073
lowerneck -9.61108 -6.91331 -3.28077
upperneck -3.56575 -9.59304 10.8795
head 1.29562 -4.89196 3.68728
rclavicle 2.31584e-014 2.14687e-014
rhumerus 69.9691 21.2915 2.56961
rradius 40.219
rwrist -55.6635
rhand -45.338 -7.31186
rfingers 7.12502
rthumb -18.1089 -36.4889
lclavicle 2.31584e-014 2.14687e-014
lhumerus 68.4934 -21.9608 -0.911159
lradius 32.7431
lwrist 2.03694
lhand -44.069 11.8445
lfingers 7.12502
lthumb -16.8877 41.1302
rfemur -10.0991 -11.8204 21.6778
rtibia 53.9241
rfoot -29.9241 -8.19209
rtoes -0.431686
lfemur -11.3647 2.38325 -18.5795
ltibia 50.8592
lfoot -21.0371 -13.7753
ltoes -3.23881
34
root -0.27103 16.4464 5.72721 172.32 -12.0265 -179.132
lowerback 15.3663 -2.77308 -1.02415
upperback 5.35611 -4.51843 -0.872268
thorax -2.91302 -2.52399 0.467648
lowerneck -9.54036 -6.92713 -3.33306
upperneck -3.62366 -9.60423 10.9142
head 1.27027 -4.90083 3.71163
rclavicle 5.52621e-014 9.93923e-015
rhumerus 69.9537 21.1277 2.70307
rradius 40.2018
rwrist -55.2878
rhand -45.1245 -7.43679
rfingers 7.12502
rthumb -17.9034 -36.6327
lclavicle 5.52621e-014 9.93923e-015
lhumerus 68.4743 -21.7734 -0.982945
lradius 32.6896
lwrist 1.84718
lhand -44.0294 11.587
lfingers 7.12502
lthumb -16.8495 40.8759
rfemur -10.704 -12.4673 21.5852
rtibia 55.503
rfoot -30.5858 -7.5983
rtoes -0.273856
lfemur -12.3612 2.69144 -18.355
ltibia 53.0563
lfoot -21.6368 -14.26
ltoes -2.69002
35
root -0.266534 16.3332 5.7367 172.117 -12.0155 -179.082
lowerback 15.7485 -2.76305 -0.932702
upperback 5.36515 -4.51074 -0.886436
thorax -3.11478 -2.52305 0.425093
lowerneck -9.46267 -6.95593 -3.46931
upperneck -3.68689 -9.62842 11.0083
head 1.25189 -4.91521 3.77175
rclavicle 2.34566e-014 1.90833e-014
rhumerus 69.8557 20.9684 2.6469
rradius 40.1446
rwrist -54.8392
rhand -44.9136 -7.39191
rfingers 7.12502
rthumb -17.7005 -36.6063
lclavicle 2.34566e-014 1.90833e-014
lhumerus 68.459 -21.5336 -0.994767
lradius 32.6033
lwrist 1.53568
lhand -43.9285 11.3435
lfingers 7.12502
lthumb -16.7523 40.6408
rfemur -11.3712 -13.0917 21.4305
rtibia 57.1953
rfoot -31.2669 -7.02791
rtoes -0.0657031
lfemur -13.3965 3.01415 -18.1978
ltibia 55.2934
lfoot -22.2394 -14.7392
ltoes -2.10162
36
root -0.262127 16.212 5.74601 171.938 -11.9781 -179.06
lowerback 16.1157 -2.74709 -0.847563
upperback 5.37278 -4.49652 -0.93078
thorax -3.31175 -2.51884 0.35225
lowerneck -9.34376 -6.97358 -3.53391
upperneck -3.80701 -9.64369 11.0765
head 1.20083 -4.93033 3.81261
rclavicle -4.05521e-014 1.03368e-014
rhumerus 69.7023 20.802 2.25938
rradius 40.0024
rwrist -54.2475
rhand -44.7262 -7.24552
rfingers 7.12502
rthumb -17.5201 -36.476
lclavicle -4.05521e-014 1.03368e-014
lhumerus 68.4655 -21.2412 -1.04641
lradius 32.509
lwrist 1.17562
lhand -43.7765 11.0897
lfingers 7.12502
lthumb -16.606 40.3993
rfemur -12.1105 -13.6754 21.2501
rtibia 59.0028
rfoot -31.9369 -6.41977
rtoes 0.381925
lfemur -14.4545 3.33772 -18.0726
ltibia 57.5632
lfoot -22.8571 -15.2281
ltoes -1.44539
37
root -0.257374 16.0833 5.7553 171.795 -11.9302 -179.091
lowerback 16.4864 -2.72017 -0.821124
upperback 5.36296 -4.4749 -0.975152
thorax -3.52447 -2.51016 0.311335
lowerneck -9.22809 -6.98902 -3.61612
upperneck -3.92654 -9.65297 11.1343
head 1.15046 -4.94178 3.85357
rclavicle 2.66371e-014 -7.15625e-015
rhumerus 69.5259 20.641 1.75324
rradius 39.8554
rwrist -53.6693
rhand -44.6079 -7.03074
rfingers 7.12502
rthumb -17.4063 -36.2714
lclavicle 2.66371e-014 -7.15625e-015
lhumerus 68.4911 -20.8932 -1.10475
lradius 32.3886
lwrist 0.773595
lhand -43.5778 10.9
lfingers 7.12502
lthumb -16.4147 40.2255
rfemur -12.9361 -14.2509 21.0183
rtibia 60.9356
rfoot -32.6338 -5.80176
rtoes 0.755225
lfemur -15.5212 3.58388 -18.0143
ltibia 59.8523
lfoot -23.5103 -15.6592
ltoes -0.665246
38
root -0.252523 15.9469 5.76539 171.673 -11.8977 -179.14
lowerback 16.8666 -2.69833 -0.819853
upperback 5.34433 -4.46335 -1.0181
thorax -3.74934 -2.50596 0.288483
lowerneck -9.04512 -7.00312 -3.71955
upperneck -4.13577 -9.65671 11.2153
head 1.06109 -4.95612 3.91111
rclavicle -4.59193e-014 7.55382e-015
rhumerus 69.3104 20.467 1.03381
rradius 39.6498
rwrist -53.0232
rhand -44.5073 -6.71196
rfingers 7.12502
rthumb -17.3095 -35.9611
lclavicle -4.59193e-014 7.55382e-015
lhumerus 68.5376 -20.4889 -1.26147
lradius 32.2801
lwrist 0.438028
lhand -43.3903 10.7262
lfingers 7.12502
lthumb -16.2342 40.0665
rfemur -13.8431 -14.8329 20.7648
rtibia 62.9989
rfoot -33.3357 -5.14259
rtoes 1.26174
lfemur -16.5923 3.75074 -17.9938
ltibia 62.1604
lfoot -24.1926 -16.0384
ltoes 0.157464
39
root -0.247731 15.8041 5.77587 171.572 -11.8639 -179.193
lowerback 17.2343 -2.67532 -0.795833
upperback 5.31745 -4.44574 -1.07618
thorax -3.97898 -2.49795 0.235027
lowerneck -8.84526 -7.01863 -3.78481
upperneck -4.35391 -9.66535 11.2758
head 0.962703 -4.97419 3.95521
rclavicle 8.05078e-015 -2.54444e-014
rhumerus 69.053 20.2886 0.210329
rradius 39.4461
rwrist -52.3622
rhand -44.481 -6.39628
rfingers 7.12502
rthumb -17.2842 -35.6477
lclavicle 8.05078e-015 -2.54444e-014
lhumerus 68.67 -20.0472 -1.68916
lradius 32.2212
lwrist 0.276852
lhand -43.2398 10.7225
lfingers 7.12502
lthumb -16.0892 40.0746
rfemur -14.8384 -15.4292 20.5163
rtibia 65.1869
rfoot -33.995 -4.50983
rtoes 1.73291
lfemur -17.671 3.85225 -17.9837
ltibia 64.4725
lfoot -24.8646 -16.4197
ltoes 1.22935
40
root -0.242905 15.6549 5.78636 171.527 -11.8179 -179.299
lowerback 17.5419 -2.64401 -0.815787
upperback 5.29784 -4.42504 -1.15624
thorax -4.16762 -2.48877 0.177974
lowerneck -8.64611 -7.02029 -3.80272
upperneck -4.63351 -9.66045 11.3237
head 0.839701 -4.99027 3.98846
rclavicle -3.65764e-014 -2.3059e-014
rhumerus 68.7728 20.0773 -0.770135
rradius 39.191
rwrist -51.6564
rhand -44.4752 -6.01028
rfingers 7.12502
rthumb -17.2786 -35.2622
lclavicle -3.65764e-014 -2.3059e-014
lhumerus 68.8341 -19.5216 -2.20769
lradius 32.1545
lwrist 0.101052
lhand -43.0766 10.7968
lfingers 7.12502
lthumb -15.9321 40.1615
rfemur -15.9487 -16.0125 20.2275
rtibia 67.5045
rfoot -34.6301 -3.8956
rtoes 1.99284
lfemur -18.7858 3.9921 -18.0293
ltibia 66.782
lfoot -25.5395 -16.7971
ltoes 2.14768
41
root -0.238571 15.5025 5.79765 171.506 -11.7547 -179.407
lowerback 17.8513 -2.61245 -0.845566
upperback 5.25444 -4.40179 -1.21512
thorax -4.37999 -2.47653 0.148748
lowerneck -8.41313 -7.0178 -3.89236
upperneck -4.93065 -9.64105 11.3816
head 0.708812 -4.99863 4.04165
rclavicle 2.16675e-014 -1.39149e-014
rhumerus 68.5097 19.8557 -1.72707
rradius 38.9627
rwrist -50.9762
rhand -44.4628 -5.64902
rfingers 7.12502
rthumb -17.2667 -34.902
lclavicle 2.16675e-014 -1.39149e-014
lhumerus 68.9975 -18.996 -2.88668
lradius 32.1508
lwrist 0.183124
lhand -42.9764 10.9028
lfingers 7.12502
lthumb -15.8357 40.2751
rfemur -17.1382 -16.5582 19.9499
rtibia 69.9297
rfoot -35.2404 -3.2807
rtoes 2.42165
lfemur -19.9131 4.12633 -18.0755
ltibia 69.0762
lfoot -26.1834 -17.2026
ltoes 3.21953
42
root -0.233648 15.3452 5.80901 171.491 -11.6974 -179.513
lowerback 18.1513 -2.57793 -0.884805
upperback 5.21688 -4.37744 -1.27516
thorax -4.58058 -2.46412 0.122121
lowerneck -8.18032 -7.02349 -3.91588
upperneck -5.24023 -9.6382 11.3979
head 0.568892 -5.01696 4.06778
rclavicle -2.36554e-014 -2.18663e-014
rhumerus 68.2691 19.6184 -2.63247
rradius 38.7321
rwrist -50.2967
rhand -44.4994 -5.33908
rfingers 7.12502
rthumb -17.3019 -34.5889
lclavicle -2.36554e-014 -2.18663e-014
lhumerus 69.1704 -18.45 -3.56091
lradius 32.1408
lwrist 0.24889
lhand -42.8865 11.1314
lfingers 7.12502
lthumb -15.7491 40.5106
rfemur -18.3907 -17.1588 19.6721
rtibia 72.4568
rfoot -35.7953 -2.68485
rtoes 2.56733
lfemur -21.039 4.25617 -18.125
ltibia 71.3561
lfoot -26.8087 -17.6069
ltoes 4.26858
43
root -0.229413 15.1816 5.82141 171.481 -11.6269 -179.645
lowerback 18.4491 -2.53381 -0.915109
upperback 5.18569 -4.34215 -1.35879
thorax -4.77565 -2.44701 0.0623894
lowerneck -7.95332 -7.01706 -3.91731
upperneck -5.56983 -9.62266 11.4199
head 0.421724 -5.03091 4.09338
rclavicle -3.81667e-014 5.1684e-015
rhumerus 67.9741 19.3617 -3.63546
rradius 38.492
rwrist -49.5103
rhand -44.488 -5.02834
rfingers 7.12502
rthumb -17.291 -34.2791
lclavicle -3.81667e-014 5.1684e-015
lhumerus 69.3698 -17.8832 -4.28069
lradius 32.143
lwrist 0.396018
lhand -42.8268 11.3464
lfingers 7.12502
lthumb -15.6915 40.7302
rfemur -19.6803 -17.7861 19.3513
rtibia 75.0567
rfoot -36.3301 -2.048
rtoes 2.74887
lfemur -22.1518 4.41538 -18.1977
ltibia 73.6233
lfoot -27.4083 -18.0281
ltoes 5.31893
44
root -0.224907 15.012 5.83572 171.478 -11.557 -179.756
lowerback 18.7531 -2.49382 -0.934183
upperback 5.15562 -4.31025 -1.42812
thorax -4.97229 -2.43172 0.0119352
lowerneck -7.73504 -7.02052 -3.94998
upperneck -5.91018 -9.61844 11.4533
head 0.276046 -5.05045 4.12878
rclavicle -9.74045e-015 -3.97569e-016
rhumerus 67.802 18.9986 -4.14736
rradius 38.3836
rwrist -49.1616
rhand -44.523 -4.87145
rfingers 7.12502
rthumb -17.3246 -34.1193
lclavicle -9.74045e-015 -3.97569e-016
lhumerus 69.5366 -17.3396 -4.89575
lradius 32.1132
lwrist 0.517224
lhand -42.8479 11.6367
lfingers 7.12502
lthumb -15.7119 41.0189
rfemur -21.024 -18.4337 19.0551
rtibia 77.7067
rfoot -36.8215 -1.43724
rtoes 2.86528
lfemur -23.3054 4.58583 -18.2481
ltibia 75.8957
lfoot -27.9706 -18.4792
ltoes 6.32861
